# xmcd CD database file
# Copyright (C) 1996 Ti Kan
#
# Track frame offsets:
#	225
#	21935
#	45478
#	63870
#	79243
#	100393
#	120243
#	135428
#	157048
#	175163
#
# Disc length: 2523 seconds
#
# Revision: 1
# Processed by: cddbd v1.4b41PL1 Copyright (c) Steve Scherf et al.
# Submitted via: EasyCD 2.21 - (C) 1996 Greg Leichner
#
DISCID=7809d80a
DTITLE=K.T. Oslin - This Woman
DYEAR=1900
DGENRE=
TTITLE0=This Woman
TTITLE1=Money
TTITLE2=Round The Clock Lovin'
TTITLE3=Where Is A Woman To Go
TTITLE4=Hold Me
TTITLE5=Hey Bobby
TTITLE6=She Don't Talk Like Us No More
TTITLE7=Jealous
TTITLE8=Didn't Expect It To Go Down This Way
TTITLE9=Truly Blue
EXTD=
EXTT0=
EXTT1=
EXTT2=
EXTT3=
EXTT4=
EXTT5=
EXTT6=
EXTT7=
EXTT8=
EXTT9=
PLAYORDER=
